<svg width="227" height="112" viewBox="0 0 227 112" fill="none" xmlns="http://www.w3.org/2000/svg">
<path d="M153.02 111.59H11.76C8.6428 111.59 5.65311 110.352 3.44797 108.149C1.24283 105.946 0.00265069 102.957 0 99.84C0.00265069 96.7228 1.24283 93.7341 3.44797 91.5309C5.65311 89.3276 8.6428 88.09 11.76 88.09H153.02C156.136 88.09 159.125 89.3279 161.329 91.5315C163.532 93.735 164.77 96.7237 164.77 99.84C164.77 102.956 163.532 105.945 161.329 108.148C159.125 110.352 156.136 111.59 153.02 111.59Z" fill="#0000FF"/>
<path d="M214.691 67.54H73.4307C70.3144 67.54 67.3257 66.3021 65.1221 64.0985C62.9186 61.895 61.6807 58.9063 61.6807 55.79C61.6807 52.6737 62.9186 49.6851 65.1221 47.4815C67.3257 45.278 70.3144 44.04 73.4307 44.04H214.691C217.807 44.04 220.796 45.278 222.999 47.4815C225.203 49.6851 226.441 52.6737 226.441 55.79C226.441 58.9063 225.203 61.895 222.999 64.0985C220.796 66.3021 217.807 67.54 214.691 67.54Z" fill="#0000FF"/>
<path d="M175.87 23.5H34.6203C31.5031 23.5 28.5134 22.2624 26.3083 20.0591C24.1031 17.8558 22.863 14.8672 22.8604 11.75C22.863 8.63279 24.1031 5.64415 26.3083 3.44089C28.5134 1.23762 31.5031 -1.12699e-06 34.6203 0H175.87C178.988 -1.12699e-06 181.977 1.23762 184.182 3.44089C186.388 5.64415 187.628 8.63279 187.63 11.75C187.628 14.8672 186.388 17.8558 184.182 20.0591C181.977 22.2624 178.988 23.5 175.87 23.5Z" fill="#0000FF"/>
</svg>
